<svg width="30" height="37" viewBox="0 0 30 37" fill="none" xmlns="http://www.w3.org/2000/svg">
<path d="M29.808 25.008C29.808 25.328 29.776 25.664 29.712 26.016C29.68 26.336 29.648 26.672 29.616 27.024C29.552 27.632 29.472 28.24 29.376 28.848C29.28 29.456 29.2 30.064 29.136 30.672C29.04 31.376 28.976 32.08 28.944 32.784C28.912 33.456 28.864 34.144 28.8 34.848C28.768 35.2 28.688 35.52 28.56 35.808C28.432 36.064 28.144 36.192 27.696 36.192C27.376 36.192 27.072 36.16 26.784 36.096C26.496 36.032 26.208 35.984 25.92 35.952C25.696 35.952 25.472 35.952 25.248 35.952C25.056 35.92 24.848 35.904 24.624 35.904C21.52 35.904 18.4 35.936 15.264 36C12.16 36.032 9.04 36.048 5.904 36.048C5.392 36.048 4.88 36.048 4.368 36.048C3.856 36.048 3.344 36.08 2.832 36.144C2.704 36.176 2.56 36.192 2.4 36.192C2.272 36.224 2.128 36.24 1.968 36.24C1.584 36.24 1.296 36.096 1.104 35.808C0.944 35.52 0.864 35.216 0.864 34.896C0.864 34.544 0.928 34.24 1.056 33.984C1.184 33.728 1.344 33.472 1.536 33.216C1.728 32.928 1.904 32.672 2.064 32.448C3.632 30.176 5.184 27.92 6.72 25.68C8.288 23.44 9.776 21.152 11.184 18.816C11.472 18.368 11.92 17.632 12.528 16.608C13.168 15.584 13.872 14.448 14.64 13.2C15.44 11.92 16.192 10.656 16.896 9.408C17.632 8.16 18.224 7.056 18.672 6.096C19.152 5.136 19.392 4.464 19.392 4.08C19.392 3.44 19.136 3.056 18.624 2.928C18.144 2.768 17.664 2.688 17.184 2.688H15.216C14.48 2.688 13.728 2.704 12.96 2.736C12.192 2.736 11.44 2.8 10.704 2.928C9.616 3.12 8.576 3.68 7.584 4.608C6.624 5.536 5.92 6.512 5.472 7.536C5.312 7.952 5.168 8.352 5.04 8.736C4.912 9.12 4.784 9.52 4.656 9.936C4.464 10.736 4 11.136 3.264 11.136C2.976 11.136 2.72 11.04 2.496 10.848C2.304 10.656 2.208 10.432 2.208 10.176C2.208 9.664 2.224 9.168 2.256 8.688C2.32 8.208 2.368 7.728 2.4 7.248C2.464 6.32 2.496 5.392 2.496 4.464C2.496 3.504 2.528 2.56 2.592 1.632C2.624 1.344 2.688 1.152 2.784 1.056C2.88 0.927998 3.072 0.863997 3.36 0.863997C3.776 0.863997 4.176 0.879998 4.56 0.912C4.944 0.943999 5.328 0.975999 5.712 1.008C6.928 1.104 8.16 1.168 9.408 1.2C10.688 1.2 11.952 1.2 13.2 1.2C15.696 1.2 18.192 1.168 20.688 1.104C23.216 1.008 25.744 0.959999 28.272 0.959999C28.432 0.959999 28.592 1.056 28.752 1.248C28.912 1.44 28.992 1.616 28.992 1.776C28.992 2.192 28.928 2.496 28.8 2.688C28.704 2.88 28.544 3.12 28.32 3.408L10.176 30.864C9.952 31.216 9.744 31.584 9.552 31.968C9.392 32.352 9.312 32.752 9.312 33.168C9.312 33.68 9.52 33.984 9.936 34.08C10.384 34.176 10.8 34.224 11.184 34.224C12.688 34.224 14.176 34.176 15.648 34.08C17.12 33.984 18.592 33.872 20.064 33.744C20.704 33.68 21.376 33.536 22.08 33.312C22.784 33.088 23.376 32.752 23.856 32.304C24.752 31.472 25.536 30.4 26.208 29.088C26.88 27.776 27.392 26.544 27.744 25.392C27.84 25.072 27.952 24.8 28.08 24.576C28.208 24.32 28.464 24.192 28.848 24.192C29.104 24.192 29.328 24.272 29.52 24.432C29.712 24.56 29.808 24.752 29.808 25.008Z" fill="white"/>
 <style>
        path { fill: #000; }
        @media (prefers-color-scheme: dark) {
            path { fill: #FFF; }
        }
  </style>
</svg>
